<svg data-v-423bf9ae="" xmlns="http://www.w3.org/2000/svg" viewBox="0 0 252.3809447400246 60" class="font"><!----><!----><!----><g data-v-423bf9ae="" id="4e393a93-0542-43f1-9121-139b2f18714e" fill="black" transform="matrix(4.761904617736313,0,0,4.761904617736313,-2.6190475425032957,-15.61904677151734)"><path d="M9.73 3.49L9.73 4.06L8.51 4.23L8.51 9.02L8.51 9.02Q8.51 10.12 8.26 10.89L8.26 10.89L8.26 10.89Q8.01 11.66 7.55 12.14L7.55 12.14L7.55 12.14Q7.10 12.63 6.49 12.85L6.49 12.85L6.49 12.85Q5.88 13.06 5.17 13.06L5.17 13.06L5.17 13.06Q4.40 13.06 3.77 12.85L3.77 12.85L3.77 12.85Q3.14 12.63 2.68 12.17L2.68 12.17L2.68 12.17Q2.23 11.72 1.98 11.01L1.98 11.01L1.98 11.01Q1.74 10.30 1.74 9.32L1.74 9.32L1.74 7.83L1.74 7.83Q1.74 6.92 1.74 6.01L1.74 6.01L1.74 6.01Q1.74 5.11 1.71 4.20L1.71 4.20L0.55 4.06L0.55 3.49L4.51 3.49L4.51 4.06L3.09 4.23L3.09 4.23Q3.07 5.11 3.07 6.01L3.07 6.01L3.07 6.01Q3.07 6.90 3.07 7.83L3.07 7.83L3.07 8.92L3.07 8.92Q3.07 9.81 3.23 10.42L3.23 10.42L3.23 10.42Q3.39 11.02 3.69 11.39L3.69 11.39L3.69 11.39Q3.99 11.76 4.42 11.91L4.42 11.91L4.42 11.91Q4.86 12.07 5.39 12.07L5.39 12.07L5.39 12.07Q5.99 12.07 6.44 11.89L6.44 11.89L6.44 11.89Q6.89 11.70 7.19 11.30L7.19 11.30L7.19 11.30Q7.49 10.91 7.64 10.26L7.64 10.26L7.64 10.26Q7.80 9.62 7.80 8.68L7.80 8.68L7.80 4.26L6.37 4.06L6.37 3.49L9.73 3.49ZM19.84 3.49L19.84 4.06L18.65 4.24L18.65 12.99L18.17 12.99L12.52 5.32L12.52 12.08L14 12.28L14 12.85L10.61 12.85L10.61 12.28L11.82 12.11L11.82 4.37L11.68 4.19L10.68 4.06L10.68 3.49L12.84 3.49L17.93 10.43L17.93 4.24L16.45 4.06L16.45 3.49L19.84 3.49ZM24.82 4.06L23.52 4.21L23.52 4.21Q23.49 5.10 23.49 6.00L23.49 6.00L23.49 6.00Q23.49 6.90 23.49 7.83L23.49 7.83L23.49 8.51L23.49 8.51Q23.49 9.42 23.49 10.32L23.49 10.32L23.49 10.32Q23.49 11.21 23.52 12.12L23.52 12.12L24.82 12.28L24.82 12.85L20.86 12.85L20.86 12.28L22.15 12.12L22.15 12.12Q22.18 11.24 22.18 10.34L22.18 10.34L22.18 10.34Q22.18 9.44 22.18 8.51L22.18 8.51L22.18 7.83L22.18 7.83Q22.18 6.92 22.18 6.02L22.18 6.02L22.18 6.02Q22.18 5.12 22.15 4.21L22.15 4.21L20.86 4.06L20.86 3.49L24.82 3.49L24.82 4.06ZM27.27 8.18L27.27 8.18L27.27 8.18Q27.27 8.96 27.43 9.71L27.43 9.71L27.43 9.71Q27.59 10.46 27.93 11.05L27.93 11.05L27.93 11.05Q28.27 11.63 28.79 12.00L28.79 12.00L28.79 12.00Q29.32 12.36 30.04 12.36L30.04 12.36L30.04 12.36Q30.77 12.36 31.30 12.00L31.30 12.00L31.30 12.00Q31.82 11.63 32.16 11.05L32.16 11.05L32.16 11.05Q32.49 10.46 32.66 9.71L32.66 9.71L32.66 9.71Q32.82 8.96 32.82 8.18L32.82 8.18L32.82 8.18Q32.82 7.39 32.66 6.64L32.66 6.64L32.66 6.64Q32.49 5.88 32.16 5.29L32.16 5.29L32.16 5.29Q31.82 4.70 31.30 4.35L31.30 4.35L31.30 4.35Q30.77 3.99 30.04 3.99L30.04 3.99L30.04 3.99Q29.32 3.99 28.79 4.35L28.79 4.35L28.79 4.35Q28.27 4.70 27.93 5.29L27.93 5.29L27.93 5.29Q27.59 5.88 27.43 6.64L27.43 6.64L27.43 6.64Q27.27 7.39 27.27 8.18ZM33.64 14.94L33.81 15.43L33.81 15.43Q33.45 15.67 32.98 15.77L32.98 15.77L32.98 15.77Q32.52 15.88 32.07 15.88L32.07 15.88L32.07 15.88Q31.43 15.88 30.92 15.64L30.92 15.64L30.92 15.64Q30.41 15.41 30.06 15.02L30.06 15.02L30.06 15.02Q29.71 14.63 29.52 14.11L29.52 14.11L29.52 14.11Q29.33 13.58 29.32 12.99L29.32 12.99L29.32 12.99Q28.60 12.87 27.96 12.50L27.96 12.50L27.96 12.50Q27.31 12.12 26.82 11.52L26.82 11.52L26.82 11.52Q26.33 10.91 26.04 10.07L26.04 10.07L26.04 10.07Q25.75 9.24 25.75 8.18L25.75 8.18L25.75 8.18Q25.75 7.03 26.12 6.12L26.12 6.12L26.12 6.12Q26.49 5.21 27.09 4.58L27.09 4.58L27.09 4.58Q27.69 3.95 28.46 3.61L28.46 3.61L28.46 3.61Q29.23 3.28 30.04 3.28L30.04 3.28L30.04 3.28Q30.86 3.28 31.63 3.59L31.63 3.59L31.63 3.59Q32.40 3.91 33.00 4.53L33.00 4.53L33.00 4.53Q33.60 5.15 33.96 6.07L33.96 6.07L33.96 6.07Q34.33 6.99 34.33 8.18L34.33 8.18L34.33 8.18Q34.33 9.23 34.02 10.07L34.02 10.07L34.02 10.07Q33.71 10.92 33.20 11.54L33.20 11.54L33.20 11.54Q32.69 12.17 32.02 12.54L32.02 12.54L32.02 12.54Q31.35 12.92 30.62 13.02L30.62 13.02L30.62 13.02Q30.65 14.04 31.16 14.57L31.16 14.57L31.16 14.57Q31.68 15.11 32.56 15.11L32.56 15.11L32.56 15.11Q32.77 15.11 33.05 15.07L33.05 15.07L33.05 15.07Q33.32 15.04 33.64 14.94L33.64 14.94ZM44.44 3.49L44.44 4.06L43.22 4.23L43.22 9.02L43.22 9.02Q43.22 10.12 42.97 10.89L42.97 10.89L42.97 10.89Q42.71 11.66 42.26 12.14L42.26 12.14L42.26 12.14Q41.80 12.63 41.20 12.85L41.20 12.85L41.20 12.85Q40.59 13.06 39.87 13.06L39.87 13.06L39.87 13.06Q39.10 13.06 38.47 12.85L38.47 12.85L38.47 12.85Q37.84 12.63 37.39 12.17L37.39 12.17L37.39 12.17Q36.93 11.72 36.69 11.01L36.69 11.01L36.69 11.01Q36.44 10.30 36.44 9.32L36.44 9.32L36.44 7.83L36.44 7.83Q36.44 6.92 36.44 6.01L36.44 6.01L36.44 6.01Q36.44 5.11 36.41 4.20L36.41 4.20L35.25 4.06L35.25 3.49L39.21 3.49L39.21 4.06L37.80 4.23L37.80 4.23Q37.77 5.11 37.77 6.01L37.77 6.01L37.77 6.01Q37.77 6.90 37.77 7.83L37.77 7.83L37.77 8.92L37.77 8.92Q37.77 9.81 37.93 10.42L37.93 10.42L37.93 10.42Q38.09 11.02 38.40 11.39L38.40 11.39L38.40 11.39Q38.70 11.76 39.13 11.91L39.13 11.91L39.13 11.91Q39.56 12.07 40.10 12.07L40.10 12.07L40.10 12.07Q40.70 12.07 41.15 11.89L41.15 11.89L41.15 11.89Q41.59 11.70 41.90 11.30L41.90 11.30L41.90 11.30Q42.20 10.91 42.35 10.26L42.35 10.26L42.35 10.26Q42.50 9.62 42.50 8.68L42.50 8.68L42.50 4.26L41.08 4.06L41.08 3.49L44.44 3.49ZM47.89 7.88L48.97 7.88L48.97 7.88Q50.11 7.88 50.65 7.33L50.65 7.33L50.65 7.33Q51.20 6.78 51.20 5.89L51.20 5.89L51.20 5.89Q51.20 5.05 50.71 4.60L50.71 4.60L50.71 4.60Q50.22 4.14 49.13 4.14L49.13 4.14L47.92 4.14L47.92 4.14Q47.89 5.05 47.89 5.96L47.89 5.96L47.89 5.96Q47.89 6.86 47.89 7.88L47.89 7.88ZM52.36 12.14L53.55 12.28L53.55 12.85L53.55 12.85Q53.35 12.92 53.10 12.96L53.10 12.96L53.10 12.96Q52.84 12.99 52.51 12.99L52.51 12.99L52.51 12.99Q51.83 12.99 51.45 12.80L51.45 12.80L51.45 12.80Q51.07 12.60 50.95 12.10L50.95 12.10L50.39 9.86L50.39 9.86Q50.29 9.44 50.14 9.18L50.14 9.18L50.14 9.18Q49.99 8.92 49.77 8.77L49.77 8.77L49.77 8.77Q49.55 8.62 49.24 8.57L49.24 8.57L49.24 8.57Q48.93 8.53 48.51 8.53L48.51 8.53L47.89 8.53L47.89 8.53Q47.89 9.48 47.89 10.36L47.89 10.36L47.89 10.36Q47.89 11.24 47.92 12.12L47.92 12.12L49.22 12.28L49.22 12.85L45.26 12.85L45.26 12.28L46.55 12.12L46.55 12.12Q46.58 11.24 46.58 10.34L46.58 10.34L46.58 10.34Q46.58 9.44 46.58 8.51L46.58 8.51L46.58 7.83L46.58 7.83Q46.58 6.92 46.58 6.02L46.58 6.02L46.58 6.02Q46.58 5.12 46.55 4.21L46.55 4.21L45.26 4.06L45.26 3.49L49.18 3.49L49.18 3.49Q50.79 3.49 51.68 4.12L51.68 4.12L51.68 4.12Q52.57 4.76 52.57 5.89L52.57 5.89L52.57 5.89Q52.57 6.33 52.44 6.73L52.44 6.73L52.44 6.73Q52.30 7.13 52.03 7.45L52.03 7.45L52.03 7.45Q51.76 7.77 51.33 8.00L51.33 8.00L51.33 8.00Q50.90 8.23 50.30 8.34L50.30 8.34L50.30 8.34Q50.83 8.50 51.18 8.90L51.18 8.90L51.18 8.90Q51.53 9.31 51.76 10.08L51.76 10.08L52.36 12.14Z"></path></g><!----><!----></svg>